<?xml version="1.0" encoding="UTF-8"?> <svg xmlns="http://www.w3.org/2000/svg" width="77" height="26" viewBox="0 0 77 26" fill="none"> <path fill-rule="evenodd" clip-rule="evenodd" d="M55.6083 0.696549C55.0254 0.326664 54.253 0.499351 53.8831 1.08225C53.5132 1.66516 53.6859 2.43755 54.2688 2.80743C64.8525 9.52337 70.4734 13.1602 73.0359 15.1248C73.0946 15.1699 73.1514 15.2138 73.2062 15.2565L73.0368 15.2535L72.8115 15.2496C72.2562 15.2401 71.6311 15.2321 70.9785 15.2484C69.6848 15.2807 68.2092 15.4089 66.8442 15.8493C65.4666 16.2939 64.1246 17.0827 63.231 18.4805C62.3376 19.8777 62.0037 21.709 62.296 24.0181C62.3827 24.703 63.0082 25.1879 63.6931 25.1012C64.378 25.0146 64.8629 24.3891 64.7762 23.7042C64.5333 21.7846 64.849 20.5909 65.3372 19.8272C65.8252 19.064 66.5967 18.5561 67.612 18.2285C68.6398 17.8969 69.8362 17.7777 71.0409 17.7476C71.6375 17.7327 72.2182 17.7398 72.7687 17.7492L72.9873 17.7531L72.9874 17.7531C73.4503 17.7613 73.9021 17.7694 74.2938 17.7621C74.722 17.7541 75.2117 17.728 75.6211 17.6124C75.8266 17.5543 76.1281 17.4431 76.394 17.2035C76.7049 16.9234 76.9071 16.5183 76.9022 16.0504C76.898 15.6492 76.7423 15.3234 76.6137 15.1113C76.4776 14.8869 76.3024 14.6773 76.1189 14.4847C75.7515 14.0992 75.2276 13.655 74.5569 13.1408C71.8829 11.0907 66.1393 7.37907 55.6083 0.696549ZM74.4778 16.4108C74.4779 16.4109 74.4774 16.4099 74.4761 16.4077L74.4747 16.4055C74.4766 16.409 74.4777 16.4108 74.4778 16.4108ZM74.9395 15.2071C74.949 15.2038 74.9503 15.204 74.9413 15.2066L74.9395 15.2071ZM2.00939 13.1844C1.32303 13.2585 0.826727 13.8751 0.90087 14.5614C0.975013 15.2478 1.59152 15.7441 2.27789 15.6699C23.9553 13.3283 44.3866 11.5141 65.6736 15.3215C66.3532 15.4431 67.0026 14.9907 67.1242 14.3111C67.2457 13.6316 66.7934 12.9821 66.1138 12.8606C44.4349 8.98308 23.678 10.8437 2.00939 13.1844Z" fill="#CDCD99"></path> </svg> 