<svg width="24" height="24" viewBox="0 0 24 24" fill="none" xmlns="http://www.w3.org/2000/svg">
<g clip-path="url(#clip0_270_2128)">
<path d="M11.1682 20.1188L11.1675 20.1182C8.19635 17.4371 5.77055 15.2444 4.08169 13.1882C2.39824 11.1387 1.5 9.28632 1.5 7.29428C1.5 4.03707 4.05625 1.5 7.325 1.5C9.17575 1.5 10.9597 2.35995 12.1214 3.70694L12.5 4.14595L12.8786 3.70694C14.0403 2.35995 15.8242 1.5 17.675 1.5C20.9438 1.5 23.5 4.03707 23.5 7.29428C23.5 9.28632 22.6018 11.1387 20.9183 13.1882C19.2294 15.2444 16.8036 17.4371 13.8325 20.1182L13.8318 20.1188L12.5 21.3253L11.1682 20.1188Z" fill="#8f9d61"/>
</g>
<defs>
<clipPath id="clip0_270_2128">
<rect width="24" height="24" fill="white"/>
</clipPath>
</defs>
</svg>