<svg width="24" height="24" viewBox="0 0 24 24" fill="none" xmlns="http://www.w3.org/2000/svg">
<g clip-path="url(#clip0_194_1563)">
<path fill-rule="evenodd" clip-rule="evenodd" d="M4.74894 2.31602C5.38733 1.81949 6.30443 1.91847 6.82218 2.53977L7.5887 3.45959C8.35391 4.37784 9.01033 5.38153 9.54489 6.45063L9.72381 6.80848C10.1457 7.65224 9.92062 8.67607 9.18376 9.26511L8.87057 9.51547C8.69001 9.65981 8.63193 9.9091 8.7301 10.1184L8.89403 10.4678C9.7525 12.2978 11.1209 13.8411 12.835 14.9124L13.1824 15.1295C13.5425 15.3546 14.0055 15.3277 14.3371 15.0624L15.1131 14.4416C15.8167 13.8787 16.81 13.8559 17.5388 14.3859L21.3825 17.1813C22.0056 17.6345 22.1794 18.4884 21.783 19.1491L21.4353 19.7286C20.9374 20.5584 20.2132 21.2291 19.3476 21.6619C18.0705 22.3004 16.564 22.2847 15.3005 21.6197L14.3503 21.1196C9.84944 18.7507 6.12537 15.1366 3.62267 10.7088L2.58278 8.86898C1.4848 6.9264 1.97621 4.47259 3.73758 3.10263L4.74894 2.31602ZM6.05396 3.17996C5.88138 2.97285 5.57568 2.93986 5.36288 3.10537L4.35152 3.89199C2.98157 4.9575 2.59936 6.86602 3.45334 8.37692L4.49323 10.2167C6.90149 14.4775 10.485 17.9552 14.816 20.2347L15.7663 20.7348C16.7447 21.2498 17.9114 21.2619 18.9004 20.7674C19.5959 20.4197 20.1778 19.8809 20.5778 19.2141L20.9255 18.6346C21.0554 18.4182 20.9984 18.1385 20.7944 17.9901L16.9506 15.1946C16.5862 14.9296 16.0896 14.941 15.7377 15.2225L14.9618 15.8433C14.2986 16.3738 13.3726 16.4277 12.6524 15.9775L12.305 15.7604C10.4277 14.5871 8.92892 12.8968 7.98869 10.8925L7.82477 10.5431C7.53025 9.91525 7.70449 9.16738 8.24616 8.73437L8.55936 8.48401C8.92779 8.18949 9.04032 7.67757 8.82938 7.25569L8.65046 6.89785C8.15039 5.89771 7.53632 4.95878 6.82047 4.09977L6.05396 3.17996Z" fill="#262626"/>
</g>
<defs>
<clipPath id="clip0_194_1563">
<rect width="24" height="24" fill="white"/>
</clipPath>
</defs>
</svg>
